<?xml version="1.0" encoding="UTF-8" standalone="no"?>
<svg width="24px" height="24px" viewBox="0 0 24 24" version="1.1" xmlns="http://www.w3.org/2000/svg" xmlns:xlink="http://www.w3.org/1999/xlink">
    <!-- Generator: Sketch 3.6.1 (26313) - http://www.bohemiancoding.com/sketch -->
    <title>stats3</title>
    <desc>Created with Sketch.</desc>
    <defs></defs>
    <g id="Page-1" stroke="none" stroke-width="1" fill="none" fill-rule="evenodd">
        <g id="-" transform="translate(-172.000000, -426.000000)" fill="#101010">
            <g id="stats3" transform="translate(172.000000, 426.000000)">
                <path d="M12,24 C5.372583,24 0,18.627417 0,12 C0,5.372583 5.372583,0 12,0 C18.627417,0 24,5.372583 24,12 C24,18.627417 18.627417,24 12,24 L12,24 Z M12,2 C6.4771525,2 2,6.4771525 2,12 C2,17.5228475 6.4771525,22 12,22 C17.5228475,22 22,17.5228475 22,12 C22,6.4771525 17.5228475,2 12,2 L12,2 Z M16,17 C15.735777,16.9997443 15.4825966,16.8939836 15.2967039,16.7062132 C15.1108111,16.5184427 15.0076003,16.2642122 15.01,16 L15.01,11.01 C15.01,10.4632381 15.4532381,10.02 16,10.02 C16.5467619,10.02 16.99,10.4632381 16.99,11.01 L16.99,16 C16.9923997,16.2642122 16.8891889,16.5184427 16.7032961,16.7062132 C16.5174034,16.8939836 16.264223,16.9997443 16,17 L16,17 Z M12,17 C11.4477153,17 11,16.5522847 11,16 L11,8 C11,7.44771525 11.4477153,7 12,7 C12.5522847,7 13,7.44771525 13,8 L13,16 C13,16.5522847 12.5522847,17 12,17 L12,17 Z M8,17 C7.73577703,16.9997443 7.48259661,16.8939836 7.29670388,16.7062132 C7.11081115,16.5184427 7.00760027,16.2642122 7.01,16 L7.01,13.011 C7.01,12.4642381 7.4532381,12.021 8,12.021 C8.5467619,12.021 8.99,12.4642381 8.99,13.011 L8.99,16 C8.99239973,16.2642122 8.88918885,16.5184427 8.70329612,16.7062132 C8.51740339,16.8939836 8.26422297,16.9997443 8,17 L8,17 Z"></path>
            </g>
        </g>
    </g>
</svg>